<svg width="39" height="39" viewBox="0 0 39 39" fill="none" xmlns="http://www.w3.org/2000/svg">
<g id="Stock_cut">
<g id="Group">
<path id="Vector" d="M2.4375 3.65625V28.0312H7.3125V35.3438L14.625 28.0312H36.5625V3.65625H2.4375Z" stroke="#8E8E8E" stroke-width="2.4375" stroke-miterlimit="10" stroke-linejoin="round"/>
<path id="Vector_2" d="M9.75 18.2812C11.0962 18.2812 12.1875 17.1899 12.1875 15.8438C12.1875 14.4976 11.0962 13.4062 9.75 13.4062C8.40381 13.4062 7.3125 14.4976 7.3125 15.8438C7.3125 17.1899 8.40381 18.2812 9.75 18.2812Z" stroke="#8E8E8E" stroke-width="2.4375" stroke-miterlimit="10" stroke-linejoin="round"/>
<path id="Vector_3" d="M19.5 18.2812C20.8462 18.2812 21.9375 17.1899 21.9375 15.8438C21.9375 14.4976 20.8462 13.4062 19.5 13.4062C18.1538 13.4062 17.0625 14.4976 17.0625 15.8438C17.0625 17.1899 18.1538 18.2812 19.5 18.2812Z" stroke="#8E8E8E" stroke-width="2.4375" stroke-miterlimit="10" stroke-linejoin="round"/>
<path id="Vector_4" d="M29.25 18.2812C30.5962 18.2812 31.6875 17.1899 31.6875 15.8438C31.6875 14.4976 30.5962 13.4062 29.25 13.4062C27.9038 13.4062 26.8125 14.4976 26.8125 15.8438C26.8125 17.1899 27.9038 18.2812 29.25 18.2812Z" stroke="#8E8E8E" stroke-width="2.4375" stroke-miterlimit="10" stroke-linejoin="round"/>
</g>
</g>
</svg>
