<svg width="78" height="78" viewBox="0 0 78 78" fill="none" xmlns="http://www.w3.org/2000/svg">
<g id="Categories Icon">
<g id="Categories Icon_2">
<path id="Vector" d="M57.6694 42.6848H21.3801C21.1727 42.6848 21.0357 42.6163 20.9655 42.5552C20.9018 42.4999 20.882 42.4463 20.882 42.3872V33.766C20.882 33.7069 20.9018 33.6534 20.9655 33.5981C21.0357 33.537 21.1727 33.4685 21.3801 33.4685H57.6694C57.8767 33.4685 58.0137 33.537 58.084 33.5981C58.1476 33.6534 58.1674 33.7069 58.1674 33.766V42.3862C58.1674 42.3852 58.1674 42.3848 58.1673 42.3848C58.1665 42.3847 58.1579 42.4496 58.064 42.5354C57.9688 42.6223 57.8303 42.6848 57.6694 42.6848Z" stroke="#8E8E8E" stroke-width="2.21184"/>
<path id="Vector_2" d="M57.6694 29.7528H21.3801C21.1727 29.7528 21.0357 29.6843 20.9654 29.6232C20.9018 29.5679 20.882 29.5143 20.882 29.4552V20.834C20.882 20.6866 20.9319 20.6095 20.9855 20.5605C21.0479 20.5035 21.1737 20.4362 21.3801 20.4362H57.6694C57.8768 20.4362 58.0137 20.5048 58.084 20.5658C58.1476 20.6211 58.1674 20.6747 58.1674 20.7338V29.355C58.1674 29.5024 58.1175 29.5796 58.064 29.6285C58.0015 29.6855 57.8757 29.7528 57.6694 29.7528Z" stroke="#8E8E8E" stroke-width="2.21184"/>
<path id="Vector_3" d="M57.6694 55.7167H21.3801C21.1727 55.7167 21.0357 55.6482 20.9654 55.5871C20.9018 55.5318 20.882 55.4783 20.882 55.4192V46.798C20.882 46.7389 20.9018 46.6854 20.9654 46.63C21.0357 46.569 21.1727 46.5005 21.3801 46.5005H57.6694C57.8768 46.5005 58.0137 46.569 58.084 46.63C58.1476 46.6854 58.1674 46.7389 58.1674 46.798V55.4192C58.1674 55.4783 58.1476 55.5318 58.084 55.5871C58.0137 55.6482 57.8768 55.7167 57.6694 55.7167Z" stroke="#8E8E8E" stroke-width="2.21184"/>
</g>
<circle id="Ellipse 1" cx="39.0287" cy="38.5832" r="38.5055" fill="#05FF00" fill-opacity="0.41"/>
</g>
</svg>
