<svg width="25" height="25" viewBox="0 0 25 25" fill="none" xmlns="http://www.w3.org/2000/svg">
<path id="Dashboard Icon" fill-rule="evenodd" clip-rule="evenodd" d="M3.46163 0.000115368L3.36484 5.85853e-05C2.92552 -0.000354293 2.54681 -0.000710345 2.21131 0.0786192C1.15657 0.327994 0.333037 1.13906 0.0798281 2.17782C-0.000721268 2.50824 -0.000359741 2.88121 5.94862e-05 3.31388L0.000117142 3.40921V7.95466L5.94862e-05 8.04998C-0.000359741 8.48265 -0.000721268 8.85565 0.0798281 9.18604C0.333037 10.2248 1.15657 11.0359 2.21131 11.2853C2.54681 11.3646 2.92552 11.3642 3.36484 11.3638L3.46163 11.3638H8.07697L8.17376 11.3638C8.61308 11.3642 8.99181 11.3646 9.32729 11.2853C10.382 11.0359 11.2056 10.2248 11.4588 9.18604C11.5393 8.85565 11.539 8.48265 11.5385 8.04998L11.5385 7.95466V3.40921L11.5385 3.31388C11.539 2.88121 11.5393 2.50824 11.4588 2.17782C11.2056 1.13906 10.382 0.327994 9.32729 0.0786192C8.99181 -0.000710345 8.61308 -0.000354293 8.17376 5.85853e-05L8.07697 0.000115368H3.46163ZM2.66025 1.92023C2.74302 1.90065 2.86975 1.89405 3.46163 1.89405H8.07697C8.66887 1.89405 8.7956 1.90065 8.87835 1.92023C9.22995 2.00335 9.50444 2.27369 9.58886 2.61996C9.60873 2.70148 9.61542 2.82629 9.61542 3.40921V7.95466C9.61542 8.5376 9.60873 8.66241 9.58886 8.7439C9.50444 9.09017 9.22995 9.36051 8.87835 9.44366C8.7956 9.46322 8.66887 9.46981 8.07697 9.46981H3.46163C2.86975 9.46981 2.74302 9.46322 2.66025 9.44366C2.30866 9.36051 2.03416 9.09017 1.94975 8.7439C1.92987 8.66241 1.92318 8.5376 1.92318 7.95466V3.40921C1.92318 2.82629 1.92987 2.70148 1.94975 2.61996C2.03416 2.27369 2.30866 2.00335 2.66025 1.92023ZM16.9231 0.000115368L16.8263 5.85853e-05C16.3869 -0.000354293 16.0082 -0.000710345 15.6727 0.0786192C14.618 0.327994 13.7945 1.13906 13.5413 2.17782C13.4607 2.50824 13.4611 2.88121 13.4615 3.31388L13.4615 3.40921V7.95466L13.4615 8.04998C13.4611 8.48265 13.4607 8.85565 13.5413 9.18604C13.7945 10.2248 14.618 11.0359 15.6727 11.2853C16.0082 11.3646 16.3869 11.3642 16.8263 11.3638L16.9231 11.3638H21.5384L21.6351 11.3638C22.0746 11.3642 22.4532 11.3646 22.7888 11.2853C23.8434 11.0359 24.667 10.2248 24.9203 9.18604C25.0007 8.85565 25.0005 8.48265 24.9999 8.04998V7.95466V3.40921V3.31388C25.0005 2.88121 25.0007 2.50824 24.9203 2.17782C24.667 1.13906 23.8434 0.327994 22.7888 0.0786192C22.4532 -0.000710345 22.0746 -0.000354293 21.6351 5.85853e-05L21.5384 0.000115368H16.9231ZM16.1217 1.92023C16.2044 1.90065 16.3312 1.89405 16.9231 1.89405H21.5384C22.1303 1.89405 22.257 1.90065 22.3397 1.92023C22.6913 2.00335 22.9659 2.27369 23.0503 2.61996C23.0701 2.70148 23.0768 2.82629 23.0768 3.40921V7.95466C23.0768 8.5376 23.0701 8.66241 23.0503 8.7439C22.9659 9.09017 22.6913 9.36051 22.3397 9.44366C22.257 9.46322 22.1303 9.46981 21.5384 9.46981H16.9231C16.3312 9.46981 16.2044 9.46322 16.1217 9.44366C15.7701 9.36051 15.4956 9.09017 15.4112 8.7439C15.3913 8.66241 15.3846 8.5376 15.3846 7.95466V3.40921C15.3846 2.82629 15.3913 2.70148 15.4112 2.61996C15.4956 2.27369 15.7701 2.00335 16.1217 1.92023ZM3.36484 13.2576L3.46163 13.2577H8.07697L8.17376 13.2576C8.61308 13.2572 8.99181 13.2569 9.32729 13.3362C10.382 13.5856 11.2056 14.3966 11.4588 15.4354C11.5393 15.7658 11.539 16.1388 11.5385 16.5715L11.5385 16.6668V21.2122L11.5385 21.3075C11.539 21.7403 11.5393 22.1132 11.4588 22.4437C11.2056 23.4823 10.382 24.2935 9.32729 24.5429C8.99181 24.6221 8.61308 24.6219 8.17376 24.6213H8.07697H3.46163H3.36484C2.92552 24.6219 2.54681 24.6221 2.21131 24.5429C1.15657 24.2935 0.333037 23.4823 0.0798281 22.4437C-0.000721268 22.1132 -0.000359741 21.7403 5.94862e-05 21.3075L0.000117142 21.2122V16.6668L5.94862e-05 16.5715C-0.000359741 16.1388 -0.000721268 15.7658 0.0798281 15.4354C0.333037 14.3966 1.15657 13.5856 2.21131 13.3362C2.54681 13.2569 2.92552 13.2572 3.36484 13.2576ZM3.46163 15.1516C2.86975 15.1516 2.74302 15.1582 2.66025 15.1778C2.30866 15.2609 2.03416 15.5313 1.94975 15.8775C1.92987 15.9591 1.92318 16.0839 1.92318 16.6668V21.2122C1.92318 21.7952 1.92987 21.92 1.94975 22.0014C2.03416 22.3477 2.30866 22.6181 2.66025 22.7013C2.74302 22.7208 2.86975 22.7274 3.46163 22.7274H8.07697C8.66887 22.7274 8.7956 22.7208 8.87835 22.7013C9.22995 22.6181 9.50444 22.3477 9.58886 22.0014C9.60873 21.92 9.61542 21.7952 9.61542 21.2122V16.6668C9.61542 16.0839 9.60873 15.9591 9.58886 15.8775C9.50444 15.5313 9.22995 15.2609 8.87835 15.1778C8.7956 15.1582 8.66887 15.1516 8.07697 15.1516H3.46163ZM16.9231 13.2577L16.8263 13.2576C16.3869 13.2572 16.0082 13.2569 15.6727 13.3362C14.618 13.5856 13.7945 14.3966 13.5413 15.4354C13.4607 15.7658 13.4611 16.1388 13.4615 16.5715L13.4615 16.6668V21.2122L13.4615 21.3075C13.4611 21.7403 13.4607 22.1132 13.5413 22.4437C13.7945 23.4823 14.618 24.2935 15.6727 24.5429C16.0082 24.6221 16.3869 24.6219 16.8263 24.6213H16.9231H21.5384H21.6351C22.0746 24.6219 22.4532 24.6221 22.7888 24.5429C23.8434 24.2935 24.667 23.4823 24.9203 22.4437C25.0007 22.1132 25.0005 21.7403 24.9999 21.3075V21.2122V16.6668V16.5715C25.0005 16.1388 25.0007 15.7658 24.9203 15.4354C24.667 14.3966 23.8434 13.5856 22.7888 13.3362C22.4532 13.2569 22.0746 13.2572 21.6351 13.2576L21.5384 13.2577H16.9231ZM16.1217 15.1778C16.2044 15.1582 16.3312 15.1516 16.9231 15.1516H21.5384C22.1303 15.1516 22.257 15.1582 22.3397 15.1778C22.6913 15.2609 22.9659 15.5313 23.0503 15.8775C23.0701 15.9591 23.0768 16.0839 23.0768 16.6668V21.2122C23.0768 21.7952 23.0701 21.92 23.0503 22.0014C22.9659 22.3477 22.6913 22.6181 22.3397 22.7013C22.257 22.7208 22.1303 22.7274 21.5384 22.7274H16.9231C16.3312 22.7274 16.2044 22.7208 16.1217 22.7013C15.7701 22.6181 15.4956 22.3477 15.4112 22.0014C15.3913 21.92 15.3846 21.7952 15.3846 21.2122V16.6668C15.3846 16.0839 15.3913 15.9591 15.4112 15.8775C15.4956 15.5313 15.7701 15.2609 16.1217 15.1778Z" fill="#8E8E8E"/>
</svg>
