<svg width="25" height="25" viewBox="0 0 25 25" fill="none" xmlns="http://www.w3.org/2000/svg">
<path id="Messages Icon" d="M23.8817 10.9201L23.8852 10.9307L23.8891 10.9412C24.0597 11.3992 24.1783 11.7571 24.2534 12.0273C24.3325 12.3118 24.35 12.4536 24.35 12.5V23.2143C24.35 23.8387 23.8532 24.35 23.2143 24.35H1.78571C1.14679 24.35 0.65 23.8387 0.65 23.2143V12.5C0.65 12.4536 0.667471 12.3119 0.746626 12.0275C0.821803 11.7574 0.94058 11.3996 1.1116 10.9417L1.11561 10.931L1.11924 10.9201L4.18799 1.72634L4.195 1.70534L4.20056 1.68392C4.3472 1.11925 4.60369 0.891146 4.7959 0.784268C5.01175 0.664247 5.23376 0.65 5.35714 0.65H19.6429C19.7662 0.65 19.9883 0.664247 20.2041 0.784268C20.3963 0.891146 20.6528 1.11925 20.7994 1.68392L20.805 1.70537L20.812 1.72639L23.8817 10.9201ZM6.64911 2.92143H6.18058L6.03245 3.36593L3.65209 10.5088L3.36699 11.3643H4.26875H8.32831C8.64096 13.387 10.3897 14.9357 12.5 14.9357C14.6103 14.9357 16.359 13.387 16.6717 11.3643H20.7304H21.6321L21.347 10.5088L18.9667 3.36593L18.8185 2.92143H18.35H6.64911ZM21.4286 22.0786H22.0786V21.4286V14.2857V13.6357H21.4286H18.6795H18.3048L18.117 13.9599C16.9921 15.9016 14.8995 17.2071 12.5 17.2071C10.1005 17.2071 8.00786 15.9016 6.88297 13.9599L6.69517 13.6357H6.32054H3.57143H2.92143V14.2857V21.4286V22.0786H3.57143H21.4286ZM17.3521 8.27857H7.64861L8.4067 6.00714H16.5934L17.3521 8.27857Z" stroke="#8E8E8E" stroke-width="1.3"/>
</svg>
