<svg width="78" height="78" viewBox="0 0 78 78" fill="none" xmlns="http://www.w3.org/2000/svg">
<path d="M21.4375 22.6562V47.0312H26.3125V54.3438L33.625 47.0312H55.5625V22.6562H21.4375Z" stroke="#8E8E8E" stroke-width="2.4375" stroke-miterlimit="10" stroke-linejoin="round"/>
<path d="M28.75 37.2812C30.0962 37.2812 31.1875 36.1899 31.1875 34.8438C31.1875 33.4976 30.0962 32.4062 28.75 32.4062C27.4038 32.4062 26.3125 33.4976 26.3125 34.8438C26.3125 36.1899 27.4038 37.2812 28.75 37.2812Z" stroke="#8E8E8E" stroke-width="2.4375" stroke-miterlimit="10" stroke-linejoin="round"/>
<path d="M38.5 37.2812C39.8462 37.2812 40.9375 36.1899 40.9375 34.8438C40.9375 33.4976 39.8462 32.4062 38.5 32.4062C37.1538 32.4062 36.0625 33.4976 36.0625 34.8438C36.0625 36.1899 37.1538 37.2812 38.5 37.2812Z" stroke="#8E8E8E" stroke-width="2.4375" stroke-miterlimit="10" stroke-linejoin="round"/>
<path d="M48.25 37.2812C49.5962 37.2812 50.6875 36.1899 50.6875 34.8438C50.6875 33.4976 49.5962 32.4062 48.25 32.4062C46.9038 32.4062 45.8125 33.4976 45.8125 34.8438C45.8125 36.1899 46.9038 37.2812 48.25 37.2812Z" stroke="#8E8E8E" stroke-width="2.4375" stroke-miterlimit="10" stroke-linejoin="round"/>
<circle cx="38.5055" cy="38.5055" r="38.5055" fill="#96BAFF" fill-opacity="0.41"/>
</svg>
