<svg width="25" height="24" viewBox="0 0 25 24" fill="none" xmlns="http://www.w3.org/2000/svg">
<g id="User Icons">
<g id="Group">
<path id="Vector" d="M12.4961 7.08894C12.4961 8.20861 12.0563 9.2813 11.275 10.0713C10.494 10.8612 9.43595 11.3039 8.33388 11.3039C7.2318 11.3039 6.17372 10.8612 5.3927 10.0713C4.6115 9.2813 4.17163 8.20861 4.17163 7.08894C4.17163 5.96927 4.6115 4.89658 5.3927 4.10655C6.17372 3.31671 7.2318 2.87402 8.33388 2.87402C9.43595 2.87402 10.494 3.31671 11.275 4.10655C12.0563 4.89658 12.4961 5.96927 12.4961 7.08894Z" stroke="#8E8E8E"/>
<path id="Vector_2" d="M5.18988 11.9759L5.19138 11.9752C6.13506 11.5414 7.19442 11.3608 8.33377 11.3608C9.47311 11.3608 10.5325 11.5414 11.4762 11.9752L11.4777 11.9759C14.0046 13.1274 15.8376 15.5129 16.1678 18.4306C16.1553 19.206 15.5808 19.7907 14.8609 19.7907H1.80662C1.0872 19.7907 0.512719 19.2061 0.500208 18.4306C0.830037 15.5129 2.6629 13.1274 5.18988 11.9759Z" stroke="#8E8E8E"/>
</g>
<path id="Vector_3" d="M5.94223 23.4146C4.92739 23.4146 4.13873 22.5979 4.12565 21.5496C4.53329 17.9594 6.7338 14.9931 9.80701 13.4471C10.7258 14.9358 12.3858 16.0444 14.3124 16.0444C16.2391 16.0444 17.8988 14.9357 18.8179 13.4471C21.8906 14.9931 24.0917 17.9594 24.4998 21.5496C24.4867 22.5978 23.698 23.4146 22.6826 23.4146H5.94223Z" stroke="#8E8E8E"/>
<path id="Vector_4" d="M19.7911 5.97869C19.7911 7.43174 19.2139 8.82526 18.1865 9.85272C17.159 10.8802 15.7655 11.4574 14.3124 11.4574C12.8594 11.4574 11.4659 10.8802 10.4384 9.85272C9.41096 8.82526 8.83374 7.43174 8.83374 5.97869C8.83374 4.52565 9.41096 3.13213 10.4384 2.10467C11.4659 1.07722 12.8594 0.5 14.3124 0.5C15.7655 0.5 17.159 1.07722 18.1865 2.10467C19.2139 3.13213 19.7911 4.52565 19.7911 5.97869Z" stroke="#8E8E8E"/>
<path id="Vector_5" d="M10.2155 12.1166L10.2156 12.1166C11.4687 11.5684 12.8561 11.2617 14.3124 11.2617C15.7687 11.2617 17.1558 11.5684 18.4096 12.1166C21.6906 13.5519 24.0733 16.6587 24.4998 20.3545C24.4865 21.4075 23.6987 22.2191 22.6826 22.2191H5.94223C4.92669 22.2191 4.13885 21.4076 4.12566 20.3545C4.5516 16.6586 6.93375 13.5519 10.2155 12.1166Z" stroke="#8E8E8E"/>
</g>
</svg>
