<svg width="78" height="78" viewBox="0 0 78 78" fill="none" xmlns="http://www.w3.org/2000/svg">
<path d="M38 42C42.1421 42 45.5 38.6421 45.5 34.5C45.5 30.3579 42.1421 27 38 27C33.8579 27 30.5 30.3579 30.5 34.5C30.5 38.6421 33.8579 42 38 42Z" stroke="#8E8E8E" stroke-width="2.61" stroke-linecap="round" stroke-linejoin="round"/>
<path d="M48.5 57C48.5 54.2152 47.3938 51.5445 45.4246 49.5754C43.4555 47.6062 40.7848 46.5 38 46.5C35.2152 46.5 32.5445 47.6062 30.5754 49.5754C28.6062 51.5445 27.5 54.2152 27.5 57H48.5Z" stroke="#8E8E8E" stroke-width="2.61" stroke-linecap="round" stroke-linejoin="round"/>
<path d="M50 36C51.2784 36 52.5356 35.6732 53.6522 35.0507C54.7688 34.4281 55.7078 33.5305 56.3799 32.443C57.052 31.3555 57.435 30.1142 57.4924 28.8371C57.5499 27.56 57.2799 26.2894 56.7082 25.1459C56.1365 24.0024 55.2819 23.0241 54.2258 22.3038C53.1696 21.5835 51.9468 21.1451 50.6735 21.0303C49.4003 20.9155 48.1188 21.1281 46.9508 21.6478C45.7828 22.1676 44.7671 22.9773 44 24" stroke="#8E8E8E" stroke-width="2.61" stroke-linecap="round" stroke-linejoin="round"/>
<path d="M51.5 51H60.5C60.5 48.2152 59.3938 45.5445 57.4246 43.5754C55.4555 41.6062 52.7848 40.5 50 40.5" stroke="#8E8E8E" stroke-width="2.61" stroke-linecap="round" stroke-linejoin="round"/>
<path d="M32 24C31.2329 22.9773 30.2172 22.1676 29.0492 21.6478C27.8812 21.1281 26.5997 20.9155 25.3265 21.0303C24.0532 21.1451 22.8304 21.5835 21.7742 22.3038C20.7181 23.0241 19.8635 24.0024 19.2918 25.1459C18.7201 26.2894 18.4501 27.56 18.5076 28.8371C18.565 30.1142 18.948 31.3555 19.6201 32.443C20.2922 33.5305 21.2312 34.4281 22.3478 35.0507C23.4644 35.6732 24.7216 36 26 36" stroke="#8E8E8E" stroke-width="2.61" stroke-linecap="round" stroke-linejoin="round"/>
<path d="M26 40.5C23.2152 40.5 20.5445 41.6062 18.5754 43.5754C16.6062 45.5445 15.5 48.2152 15.5 51H24.5" stroke="#8E8E8E" stroke-width="2.61" stroke-linecap="round" stroke-linejoin="round"/>
<circle cx="38.5055" cy="38.5055" r="38.5055" fill="#FF0000" fill-opacity="0.41"/>
</svg>
