<svg width="48" height="48" viewBox="0 0 48 48" fill="none" xmlns="http://www.w3.org/2000/svg">
<g id="Frame">
<g id="79-users">
<path id="Vector" d="M24 27C28.1421 27 31.5 23.6421 31.5 19.5C31.5 15.3579 28.1421 12 24 12C19.8579 12 16.5 15.3579 16.5 19.5C16.5 23.6421 19.8579 27 24 27Z" stroke="#8E8E8E" stroke-width="2.61" stroke-linecap="round" stroke-linejoin="round"/>
<path id="Vector_2" d="M34.5 42C34.5 39.2152 33.3938 36.5445 31.4246 34.5754C29.4555 32.6062 26.7848 31.5 24 31.5C21.2152 31.5 18.5445 32.6062 16.5754 34.5754C14.6062 36.5445 13.5 39.2152 13.5 42H34.5Z" stroke="#8E8E8E" stroke-width="2.61" stroke-linecap="round" stroke-linejoin="round"/>
<path id="Vector_3" d="M36 21C37.2784 21 38.5356 20.6732 39.6522 20.0507C40.7688 19.4281 41.7078 18.5305 42.3799 17.443C43.052 16.3555 43.435 15.1142 43.4924 13.8371C43.5499 12.56 43.2799 11.2894 42.7082 10.1459C42.1365 9.00244 41.2819 8.02411 40.2258 7.3038C39.1696 6.58349 37.9468 6.14512 36.6735 6.03031C35.4003 5.9155 34.1188 6.12806 32.9508 6.64782C31.7828 7.16757 30.7671 7.97726 30 9" stroke="#8E8E8E" stroke-width="2.61" stroke-linecap="round" stroke-linejoin="round"/>
<path id="Vector_4" d="M37.5 36H46.5C46.5 33.2152 45.3938 30.5445 43.4246 28.5754C41.4555 26.6062 38.7848 25.5 36 25.5" stroke="#8E8E8E" stroke-width="2.61" stroke-linecap="round" stroke-linejoin="round"/>
<path id="Vector_5" d="M18 9C17.2329 7.97726 16.2172 7.16757 15.0492 6.64782C13.8812 6.12806 12.5997 5.9155 11.3265 6.03031C10.0532 6.14512 8.83042 6.58349 7.77424 7.3038C6.71805 8.02411 5.86353 9.00244 5.2918 10.1459C4.72007 11.2894 4.45012 12.56 4.50758 13.8371C4.56504 15.1142 4.94801 16.3555 5.62012 17.443C6.29223 18.5305 7.23116 19.4281 8.34777 20.0507C9.46437 20.6732 10.7216 21 12 21" stroke="#8E8E8E" stroke-width="2.61" stroke-linecap="round" stroke-linejoin="round"/>
<path id="Vector_6" d="M12 25.5C9.21523 25.5 6.54451 26.6062 4.57538 28.5754C2.60625 30.5445 1.5 33.2152 1.5 36H10.5" stroke="#8E8E8E" stroke-width="2.61" stroke-linecap="round" stroke-linejoin="round"/>
</g>
</g>
</svg>
